<?xml version="1.0" encoding="UTF-8"?>
<svg xmlns="http://www.w3.org/2000/svg" id="Layer_1" data-name="Layer 1" viewBox="0 0 24 24">
  <path d="m21,6c-.553,0-1-.447-1-1s.447-1,1-1,1-.448,1-1-.448-1-1-1c-.612,0-1.324.291-1.547.403-.343.173-.753.136-1.057-.095-.187-.141-.493-.309-.896-.309-.827,0-1.5.673-1.5,1.5v.5c0,.553-.447,1-1,1s-1-.447-1-1v-.5c0-1.93,1.57-3.5,3.5-3.5.556,0,1.095.133,1.585.387.467-.177,1.176-.387,1.915-.387,1.654,0,3,1.346,3,3s-1.346,3-3,3Zm-14-2v-.5c0-.827.673-1.5,1.5-1.5.404,0,.71.168.896.309.305.23.717.268,1.057.095.223-.112.936-.403,1.547-.403.552,0,1-.447,1-1s-.448-1-1-1c-.739,0-1.448.21-1.915.387-.491-.254-1.029-.387-1.585-.387-1.93,0-3.5,1.57-3.5,3.5v.5c0,.553.448,1,1,1s1-.447,1-1Zm7.151,9c-.071-.59-.109-1.183-.109-1.777v-2.223c0-1.103-.897-2-2-2h-7.021c-1.103,0-2,.897-2,2v2.223c0,.594-.038,1.187-.109,1.777h11.24Zm2.637,7.255l-1.162-2.324c-.467-.933-.819-1.92-1.082-2.931H2.519c-.263,1.01-.615,1.998-1.082,2.931l-1.162,2.324c-.404.808-.361,1.749.113,2.518.475.769,1.298,1.228,2.202,1.228h11.882c.903,0,1.727-.459,2.201-1.228.476-.768.518-1.709.114-2.518Zm-.746-11.255v2.223c0,.499.032,1.017.095,1.537l.029.24h4.922c-.071-.59-.109-1.183-.109-1.777v-2.223c0-1.103-.897-2-2-2h-3.493c.344.591.556,1.268.556,2Zm7.683,11.255l-1.162-2.324c-.467-.933-.819-1.92-1.082-2.931h-4.844c.218.728.47,1.42.778,2.035l1.164,2.327c.715,1.435.639,3.103-.204,4.464-.038.061-.083.115-.123.174h3.159c.903,0,1.727-.459,2.201-1.228.476-.768.518-1.709.114-2.518Z"/>
</svg>
