<svg width="60" height="60" viewBox="0 0 60 60" fill="none" xmlns="http://www.w3.org/2000/svg">
<rect x="0.5" y="0.5" width="59" height="59" rx="7.5" stroke="#C86D02"/>
<path d="M22.1055 43.9876C22.1059 43.4574 22.317 42.949 22.6921 42.5743L32.9215 32.3449C33.2311 32.0354 33.4767 31.6679 33.6443 31.2634C33.8118 30.859 33.8981 30.4254 33.8981 29.9876C33.8981 29.5498 33.8118 29.1163 33.6443 28.7118C33.4767 28.3073 33.2311 27.9398 32.9215 27.6303L22.7055 17.4076C22.3412 17.0304 22.1396 16.5252 22.1441 16.0008C22.1487 15.4764 22.359 14.9748 22.7298 14.604C23.1006 14.2332 23.6023 14.0228 24.1267 14.0183C24.6511 14.0137 25.1563 14.2153 25.5335 14.5796L35.7495 24.7943C37.1231 26.1706 37.8946 28.0357 37.8946 29.9803C37.8946 31.9248 37.1231 33.7899 35.7495 35.1663L25.5201 45.3956C25.2408 45.6751 24.885 45.8656 24.4975 45.9431C24.1101 46.0205 23.7083 45.9815 23.3431 45.8308C22.9778 45.6802 22.6653 45.4248 22.445 45.0967C22.2248 44.7687 22.1066 44.3827 22.1055 43.9876Z" fill="#C86D02" fill-opacity="0.5"/>
</svg>
