<svg width="60" height="60" viewBox="0 0 60 60" fill="none" xmlns="http://www.w3.org/2000/svg">
<rect x="59.5" y="59.5" width="59" height="59" rx="7.5" transform="rotate(-180 59.5 59.5)" stroke="#C86D02"/>
<path d="M37.8945 16.0124C37.8941 16.5426 37.683 17.051 37.3079 17.4257L27.0785 27.6551C26.7689 27.9646 26.5233 28.3321 26.3557 28.7366C26.1882 29.141 26.1019 29.5746 26.1019 30.0124C26.1019 30.4502 26.1882 30.8837 26.3557 31.2882C26.5233 31.6927 26.7689 32.0602 27.0785 32.3697L37.2945 42.5924C37.6588 42.9696 37.8604 43.4748 37.8559 43.9992C37.8513 44.5236 37.641 45.0252 37.2702 45.396C36.8994 45.7668 36.3977 45.9772 35.8733 45.9817C35.3489 45.9863 34.8437 45.7847 34.4665 45.4204L24.2505 35.2057C22.8769 33.8294 22.1054 31.9643 22.1054 30.0197C22.1054 28.0752 22.8769 26.2101 24.2505 24.8337L34.4799 14.6044C34.7592 14.3249 35.115 14.1344 35.5025 14.0569C35.8899 13.9795 36.2917 14.0185 36.6569 14.1692C37.0222 14.3198 37.3347 14.5752 37.555 14.9033C37.7752 15.2313 37.8934 15.6173 37.8945 16.0124Z" fill="#C86D02" fill-opacity="0.5"/>
</svg>
