<svg width="65" height="65" viewBox="0 0 65 65" fill="none" xmlns="http://www.w3.org/2000/svg">
<rect width="65" height="65" rx="12" fill="#C86D02" fill-opacity="0.75"/>
<path d="M42.8162 27.9309L36.915 21.3107C36.452 20.7914 35.824 20.4998 35.1693 20.5C34.5146 20.5002 33.8867 20.7921 33.4239 21.3116C32.961 21.8311 32.7011 22.5356 32.7012 23.2701C32.7014 24.0046 32.9616 24.7089 33.4247 25.2281L37.4383 29.7308H22.9684C22.3138 29.7308 21.6859 30.0226 21.223 30.5419C20.7601 31.0612 20.5 31.7656 20.5 32.5C20.5 33.2344 20.7601 33.9388 21.223 34.4581C21.6859 34.9774 22.3138 35.2692 22.9684 35.2692H37.4383L33.4247 39.7719C32.9616 40.2911 32.7014 40.9954 32.7012 41.7299C32.7011 42.4644 32.961 43.1689 33.4239 43.6884C33.8867 44.2079 34.5146 44.4998 35.1693 44.5C35.824 44.5002 36.452 44.2086 36.915 43.6893L42.8162 37.0691C43.8945 35.8562 44.5 34.213 44.5 32.5C44.5 30.787 43.8945 29.1438 42.8162 27.9309Z" fill="white"/>
</svg>
