<svg width="65" height="65" viewBox="0 0 65 65" fill="none" xmlns="http://www.w3.org/2000/svg">
<rect x="65" y="65" width="65" height="65" rx="12" transform="rotate(-180 65 65)" fill="#C86D02" fill-opacity="0.75"/>
<path d="M22.1838 37.0691L28.085 43.6893C28.548 44.2086 29.176 44.5002 29.8307 44.5C30.4854 44.4998 31.1133 44.2079 31.5761 43.6884C32.039 43.1689 32.2989 42.4644 32.2988 41.7299C32.2986 40.9954 32.0384 40.2911 31.5753 39.7719L27.5617 35.2692H42.0316C42.6862 35.2692 43.3141 34.9774 43.777 34.4581C44.2399 33.9388 44.5 33.2344 44.5 32.5C44.5 31.7656 44.2399 31.0612 43.777 30.5419C43.3141 30.0226 42.6862 29.7308 42.0316 29.7308H27.5617L31.5753 25.2281C32.0384 24.7089 32.2986 24.0046 32.2988 23.2701C32.2989 22.5356 32.039 21.8311 31.5761 21.3116C31.1133 20.7921 30.4854 20.5002 29.8307 20.5C29.176 20.4998 28.548 20.7914 28.085 21.3107L22.1838 27.9309C21.1055 29.1438 20.5 30.787 20.5 32.5C20.5 34.213 21.1055 35.8562 22.1838 37.0691Z" fill="white"/>
</svg>
