<?xml version="1.0" encoding="UTF-8"?>
<svg xmlns="http://www.w3.org/2000/svg" id="Layer_1" data-name="Layer 1" viewBox="0 0 24 24">
  <path d="m23,15.092v-2.143c0-4.735-3.18-8.912-7.771-10.292-.728-.999-1.899-1.657-3.229-1.657s-2.501.658-3.229,1.656C4.18,4.037,1,8.214,1,12.949v2.143c-.581.207-1,.756-1,1.408,0,.828.671,1.5,1.5,1.5h.27l.392.5c2.355,3.028,5.573,4.5,9.837,4.5s7.482-1.472,9.833-4.495l.396-.505h.271c.828,0,1.5-.672,1.5-1.5,0-.652-.419-1.201-1-1.408Zm-3-2.143v2.051h-4V6.245c2.418,1.367,4,3.892,4,6.705ZM12,4c.551,0,1,.445,1,.992v10.008h-2V4.992c0-.547.449-.992,1-.992Zm-4,2.245v8.755h-4v-2.051c0-2.813,1.582-5.338,4-6.704Zm-2.177,11.755h12.355c-1.599,1.352-3.6,2-6.178,2s-4.577-.648-6.177-2Z"/>
</svg>
