<svg width="75" height="75" viewBox="0 0 75 75" fill="none" xmlns="http://www.w3.org/2000/svg">
<rect width="75" height="75" rx="37.5" fill="url(#paint0_linear_198_424)"/>
<path d="M46.8333 34.8333H30.8333V30.8333H32.8333C35.4067 30.8333 37.5 28.74 37.5 26.1667C37.5 23.5933 35.4067 21.5 32.8333 21.5H26.1667C23.5933 21.5 21.5 23.5933 21.5 26.1667C21.5 28.74 23.5933 30.8333 26.1667 30.8333H28.1667V34.8333C24.4907 34.8333 21.5 37.824 21.5 41.5V46.8333C21.5 50.5093 24.4907 53.5 28.1667 53.5H46.8333C50.5093 53.5 53.5 50.5093 53.5 46.8333V41.5C53.5 37.824 50.5093 34.8333 46.8333 34.8333ZM24.1667 26.1667C24.1667 25.064 25.064 24.1667 26.1667 24.1667H32.8333C33.936 24.1667 34.8333 25.064 34.8333 26.1667C34.8333 27.2693 33.936 28.1667 32.8333 28.1667H26.1667C25.064 28.1667 24.1667 27.2693 24.1667 26.1667ZM28.1667 37.5H46.8333C49.0387 37.5 50.8333 39.2947 50.8333 41.5V45.5H24.1667V41.5C24.1667 39.2947 25.9613 37.5 28.1667 37.5ZM46.8333 50.8333H28.1667C26.428 50.8333 24.9467 49.7187 24.396 48.1667H50.604C50.0533 49.7187 48.572 50.8333 46.8333 50.8333ZM33.5 41.5C33.5 40.764 34.0973 40.1667 34.8333 40.1667C35.5693 40.1667 36.1667 40.764 36.1667 41.5C36.1667 42.236 35.5693 42.8333 34.8333 42.8333C34.0973 42.8333 33.5 42.236 33.5 41.5ZM28.1667 41.5C28.1667 40.764 28.764 40.1667 29.5 40.1667C30.236 40.1667 30.8333 40.764 30.8333 41.5C30.8333 42.236 30.236 42.8333 29.5 42.8333C28.764 42.8333 28.1667 42.236 28.1667 41.5ZM38.8333 41.5C38.8333 40.764 39.4307 40.1667 40.1667 40.1667C40.9027 40.1667 41.5 40.764 41.5 41.5C41.5 42.236 40.9027 42.8333 40.1667 42.8333C39.4307 42.8333 38.8333 42.236 38.8333 41.5ZM44.1667 41.5C44.1667 40.764 44.764 40.1667 45.5 40.1667C46.236 40.1667 46.8333 40.764 46.8333 41.5C46.8333 42.236 46.236 42.8333 45.5 42.8333C44.764 42.8333 44.1667 42.236 44.1667 41.5Z" fill="white"/>
<defs>
<linearGradient id="paint0_linear_198_424" x1="37.5" y1="0" x2="37.5" y2="75" gradientUnits="userSpaceOnUse">
<stop stop-color="#C86D02"/>
<stop offset="1" stop-color="#623501"/>
</linearGradient>
</defs>
</svg>
