<svg width="1265" height="5" viewBox="0 0 1265 5" fill="none" xmlns="http://www.w3.org/2000/svg">
<g clip-path="url(#clip0_84_789)">
<rect width="135.222" height="10" transform="matrix(1 0 0 -1 0 7.5)" fill="url(#paint0_linear_84_789)"/>
<rect width="135.222" height="10" transform="matrix(1 0 0 -1 141.222 7.5)" fill="url(#paint1_linear_84_789)"/>
<rect width="135.222" height="10" transform="matrix(1 0 0 -1 282.444 7.5)" fill="url(#paint2_linear_84_789)"/>
<rect width="135.222" height="10" transform="matrix(1 0 0 -1 423.667 7.5)" fill="url(#paint3_linear_84_789)"/>
<rect width="135.222" height="10" transform="matrix(1 0 0 -1 564.889 7.5)" fill="url(#paint4_linear_84_789)"/>
<rect width="135.222" height="10" transform="matrix(1 0 0 -1 706.111 7.5)" fill="url(#paint5_linear_84_789)"/>
<rect width="135.222" height="10" transform="matrix(1 0 0 -1 847.333 7.5)" fill="url(#paint6_linear_84_789)"/>
<rect width="135.222" height="10" transform="matrix(1 0 0 -1 988.556 7.5)" fill="url(#paint7_linear_84_789)"/>
<rect width="135.222" height="10" transform="matrix(1 0 0 -1 1129.78 7.5)" fill="url(#paint8_linear_84_789)"/>
</g>
<defs>
<linearGradient id="paint0_linear_84_789" x1="0" y1="5" x2="135.222" y2="5" gradientUnits="userSpaceOnUse">
<stop stop-color="white" stop-opacity="0.15"/>
<stop offset="1" stop-color="#C86D02" stop-opacity="0.2"/>
</linearGradient>
<linearGradient id="paint1_linear_84_789" x1="0" y1="5" x2="135.222" y2="5" gradientUnits="userSpaceOnUse">
<stop stop-color="white" stop-opacity="0.15"/>
<stop offset="1" stop-color="#C86D02" stop-opacity="0.2"/>
</linearGradient>
<linearGradient id="paint2_linear_84_789" x1="0" y1="5" x2="135.222" y2="5" gradientUnits="userSpaceOnUse">
<stop stop-color="white" stop-opacity="0.15"/>
<stop offset="1" stop-color="#C86D02" stop-opacity="0.2"/>
</linearGradient>
<linearGradient id="paint3_linear_84_789" x1="0" y1="5" x2="135.222" y2="5" gradientUnits="userSpaceOnUse">
<stop stop-color="white" stop-opacity="0.15"/>
<stop offset="1" stop-color="#C86D02" stop-opacity="0.2"/>
</linearGradient>
<linearGradient id="paint4_linear_84_789" x1="0" y1="5" x2="135.222" y2="5" gradientUnits="userSpaceOnUse">
<stop stop-color="white" stop-opacity="0.15"/>
<stop offset="1" stop-color="#C86D02" stop-opacity="0.2"/>
</linearGradient>
<linearGradient id="paint5_linear_84_789" x1="0" y1="5" x2="135.222" y2="5" gradientUnits="userSpaceOnUse">
<stop stop-color="white" stop-opacity="0.15"/>
<stop offset="1" stop-color="#C86D02" stop-opacity="0.2"/>
</linearGradient>
<linearGradient id="paint6_linear_84_789" x1="0" y1="5" x2="135.222" y2="5" gradientUnits="userSpaceOnUse">
<stop stop-color="white" stop-opacity="0.15"/>
<stop offset="1" stop-color="#C86D02" stop-opacity="0.2"/>
</linearGradient>
<linearGradient id="paint7_linear_84_789" x1="0" y1="5" x2="135.222" y2="5" gradientUnits="userSpaceOnUse">
<stop stop-color="white" stop-opacity="0.15"/>
<stop offset="1" stop-color="#C86D02" stop-opacity="0.2"/>
</linearGradient>
<linearGradient id="paint8_linear_84_789" x1="0" y1="5" x2="135.222" y2="5" gradientUnits="userSpaceOnUse">
<stop stop-color="white" stop-opacity="0.15"/>
<stop offset="1" stop-color="#C86D02" stop-opacity="0.2"/>
</linearGradient>
<clipPath id="clip0_84_789">
<rect width="1265" height="5" fill="white" transform="matrix(1 0 0 -1 0 5)"/>
</clipPath>
</defs>
</svg>
