<?xml version="1.0" standalone="no"?>
<!DOCTYPE svg PUBLIC "-//W3C//DTD SVG 20010904//EN"
 "http://www.w3.org/TR/2001/REC-SVG-20010904/DTD/svg10.dtd">
<svg version="1.0" xmlns="http://www.w3.org/2000/svg"
    width="1259.000000pt" height="1280.000000pt" viewBox="0 0 1259.000000 1280.000000"
    preserveAspectRatio="xMidYMid meet">

    <g transform="translate(0.000000,1280.000000) scale(0.100000,-0.100000)"
    fill="#C86D02" stroke="none">
    <path d="M4250 11153 c-96 -98 -203 -210 -238 -248 -64 -71 -124 -134 -447
    -465 -99 -102 -245 -255 -324 -340 -80 -85 -279 -293 -443 -461 -164 -169
    -298 -314 -298 -322 0 -9 12 -25 27 -37 15 -12 126 -117 248 -234 121 -116
    292 -279 380 -361 88 -82 241 -228 340 -325 99 -98 245 -237 325 -309 131
    -120 146 -131 157 -115 7 10 13 27 13 38 0 12 11 66 24 121 66 271 98 426 92
    448 -3 13 -169 186 -381 395 -206 204 -375 379 -375 387 0 18 57 80 306 335
    198 203 314 324 541 565 84 88 227 238 320 333 l168 172 1565 0 1565 0 205
    -207 c113 -115 284 -291 380 -393 160 -170 323 -340 632 -656 85 -87 118 -128
    118 -145 0 -19 -85 -110 -365 -389 -201 -200 -365 -370 -365 -378 0 -7 7 -29
    16 -50 9 -20 26 -68 39 -107 22 -65 78 -209 109 -280 7 -16 28 -67 46 -113 18
    -45 36 -84 39 -87 7 -4 205 198 606 620 115 121 299 312 410 425 226 231 315
    331 315 351 0 15 -52 71 -334 359 -89 91 -225 232 -301 315 -77 82 -277 291
    -445 465 -168 173 -335 346 -370 385 -137 148 -444 461 -464 472 -16 10 -432
    12 -1841 13 l-1820 0 -175 -177z"/>
    <path d="M5760 10527 c-11 -18 -37 -47 -58 -64 -20 -17 -80 -70 -133 -119 -53
    -49 -165 -152 -249 -229 -85 -77 -192 -176 -239 -220 -123 -114 -178 -157
    -196 -153 -15 3 102 115 215 206 18 15 22 24 14 31 -7 8 -23 -1 -55 -31 -84
    -81 -204 -185 -236 -203 -18 -11 -37 -31 -42 -46 -6 -17 -18 -29 -33 -31 -18
    -2 -27 -14 -39 -51 -9 -26 -20 -52 -25 -57 -5 -5 -39 -16 -74 -23 l-64 -13
    -25 -59 c-23 -56 -25 -72 -26 -225 0 -153 2 -168 22 -200 25 -41 70 -84 133
    -126 82 -56 84 -57 134 -32 25 13 46 26 46 29 0 4 -20 14 -45 23 -25 10 -45
    24 -45 31 0 28 13 45 34 45 12 0 31 6 41 14 18 13 17 15 -20 33 l-40 19 3 79
    c2 44 9 85 15 92 7 6 35 23 63 37 49 25 52 30 68 89 21 77 22 84 5 125 -14 33
    -13 34 22 65 41 37 113 98 224 192 44 37 107 90 139 119 33 28 73 61 90 73 16
    13 32 26 35 30 3 5 33 30 66 58 33 27 62 52 65 55 17 19 99 80 107 80 5 0 15
    -15 21 -32 6 -18 45 -132 87 -253 42 -121 86 -248 98 -282 11 -35 24 -63 27
    -63 3 0 23 28 43 63 21 34 52 84 69 110 l30 48 -17 57 c-10 31 -20 62 -24 67
    -3 6 -6 15 -8 20 -11 56 -25 112 -43 170 -12 39 -28 93 -35 120 -8 28 -21 74
    -29 104 -16 55 -22 68 -31 60 -5 -5 42 -183 55 -209 4 -9 11 -31 15 -50 3 -19
    15 -62 25 -95 39 -131 44 -182 10 -114 -8 16 -54 96 -102 177 -48 81 -90 155
    -93 164 -5 11 6 28 33 53 l40 36 -3 77 c-3 56 -2 68 4 42 7 -28 9 -20 7 40 -1
    74 -1 75 -28 78 -23 3 -32 -3 -48 -31z"/>
    <path d="M5626 10489 c-44 -15 -83 -34 -88 -41 -16 -26 -8 -58 18 -70 24 -11
    30 -7 102 65 42 42 70 77 62 76 -8 0 -51 -14 -94 -30z"/>
    <path d="M5480 10348 c-52 -46 -204 -184 -284 -258 -85 -77 -88 -81 -74 -97
    17 -21 28 -16 92 45 34 31 106 98 161 147 204 184 187 166 168 181 -24 18 -23
    18 -63 -18z"/>
    <path d="M7640 10208 c-11 -49 -23 -64 -164 -206 -83 -84 -163 -160 -178 -168
    -16 -8 -28 -18 -28 -22 0 -5 26 -35 57 -67 l57 -58 41 48 c22 27 74 83 115
    124 86 88 91 85 60 -44 -12 -50 -17 -92 -12 -97 5 -5 50 0 107 12 54 11 100
    18 103 16 6 -6 -195 -199 -219 -210 -10 -5 -19 -12 -19 -15 0 -9 110 -121 118
    -121 4 1 20 17 35 38 15 20 85 95 155 165 111 113 148 144 228 194 18 10 15
    15 -30 61 -55 57 -36 55 -205 21 -133 -27 -124 -30 -116 49 7 64 25 146 40
    185 6 14 -7 34 -56 83 -35 35 -66 64 -70 64 -4 0 -12 -24 -19 -52z"/>
    <path d="M6263 10118 c-61 -96 -116 -186 -133 -216 -8 -15 -49 -81 -90 -147
    -41 -66 -79 -128 -85 -137 -40 -69 -141 -234 -155 -251 -17 -21 -18 -20 -109
    64 -51 46 -101 88 -112 93 -18 8 -47 -17 -225 -195 -173 -172 -212 -218 -257
    -294 -30 -49 -89 -149 -131 -222 -44 -75 -86 -135 -97 -138 -11 -4 -33 1 -51
    9 -49 25 -62 20 -115 -41 -127 -146 -155 -177 -263 -298 -194 -217 -351 -388
    -387 -422 -38 -37 -35 -54 13 -92 14 -11 525 -516 1136 -1123 847 -842 1116
    -1103 1134 -1103 24 0 56 32 1717 1685 328 327 597 600 597 606 0 15 -90 112
    -416 449 -155 159 -296 307 -314 328 -38 43 -67 47 -111 15 -22 -16 -34 -20
    -45 -13 -9 6 -54 71 -100 145 -189 301 -195 308 -396 515 l-194 199 -113 -99
    -114 -99 -23 29 c-13 17 -24 33 -24 37 0 4 -17 33 -38 65 -22 32 -83 130 -137
    218 -217 354 -302 489 -312 492 -5 2 -28 -25 -50 -59z m-1 -615 l-3 -228 -32
    -45 c-31 -44 -32 -49 -38 -175 -5 -125 -7 -133 -43 -203 -20 -40 -42 -72 -48
    -70 -7 3 -11 27 -9 65 1 34 -2 64 -8 67 -14 9 -51 -11 -51 -27 -1 -7 -9 -30
    -20 -52 -16 -33 -19 -62 -20 -167 l0 -128 -52 -107 c-29 -60 -57 -111 -63
    -115 -16 -12 -25 2 -25 38 0 19 -3 34 -6 34 -15 0 -44 -22 -44 -34 0 -8 -16
    -37 -35 -65 -19 -28 -35 -53 -35 -55 0 -11 -64 -96 -72 -96 -15 0 -8 19 51
    142 121 254 122 263 35 233 -27 -9 -54 -21 -61 -26 -14 -13 -59 -7 -56 6 1 6
    32 73 68 150 105 219 160 351 195 465 38 123 43 134 128 265 36 55 96 147 133
    205 83 129 98 150 107 150 4 0 6 -102 4 -227z m-715 -260 c-3 -21 -11 -76 -17
    -123 -5 -47 -14 -105 -19 -130 -6 -25 -13 -74 -16 -110 -4 -36 -18 -123 -31
    -195 -14 -71 -29 -155 -34 -185 -17 -104 -41 -205 -52 -215 -7 -7 -8 43 -3
    161 5 123 4 173 -4 178 -6 4 -39 -13 -72 -38 -34 -25 -65 -46 -70 -46 -15 0
    -10 40 13 107 29 88 18 97 -67 55 -36 -18 -70 -32 -75 -32 -12 0 -13 37 -2 44
    5 3 30 42 57 88 127 220 140 240 170 252 29 12 117 106 178 189 16 20 33 37
    39 37 6 0 8 -14 5 -37z m1533 -78 c0 -153 23 -258 84 -388 101 -212 108 -230
    117 -291 5 -34 18 -106 29 -161 36 -175 42 -217 31 -228 -12 -12 -31 25 -69
    138 -17 50 -52 146 -78 215 -26 69 -62 166 -80 215 -32 91 -35 94 -81 79 -20
    -5 -23 -3 -23 19 0 14 5 38 10 53 8 19 7 30 -1 41 -10 12 -16 10 -39 -12 -46
    -44 -54 -24 -19 49 12 24 19 51 16 60 -6 15 -9 15 -36 1 -39 -20 -55 -19 -48
    3 35 116 61 171 119 250 58 78 68 71 68 -43z m-2234 -760 c13 -33 24 -63 24
    -66 0 -3 -28 -37 -62 -75 -35 -39 -80 -90 -101 -113 -31 -36 -40 -41 -52 -31
    -24 20 -19 93 8 127 41 50 86 122 108 174 14 31 27 49 36 47 8 -2 25 -30 39
    -63z m3014 3 c25 -29 153 -215 163 -235 7 -17 6 -28 -7 -48 -27 -42 -36 -38
    -171 84 -27 25 -54 51 -58 59 -9 14 40 152 54 152 5 0 13 -6 19 -12z"/>
    <path d="M5630 10105 c-10 -12 -7 -30 19 -93 17 -43 31 -83 31 -88 0 -5 9 -31
    20 -59 50 -129 120 -330 120 -345 0 -9 6 -25 14 -35 14 -19 15 -19 27 7 11 24
    7 41 -36 155 -85 230 -125 337 -139 368 -7 17 -17 45 -20 62 -9 40 -20 48 -36
    28z"/>
    <path d="M7974 9524 l-210 -213 98 -98 97 -97 53 24 c29 13 59 30 67 37 13 10
    10 14 -15 25 -47 21 -114 70 -114 84 0 12 216 233 299 305 l41 35 -53 55 -52
    55 -211 -212z"/>
    <path d="M8361 9332 c-70 -27 -152 -100 -188 -167 -28 -52 -32 -70 -33 -133 0
    -79 25 -146 72 -189 23 -21 137 -93 147 -93 3 0 30 23 60 51 59 57 58 63 -18
    73 -53 7 -94 39 -115 91 -13 31 -13 39 5 86 30 85 129 169 196 169 59 0 129
    -66 139 -131 4 -21 9 -39 13 -39 3 0 30 22 59 49 53 49 53 49 38 79 -24 47
    -100 118 -155 146 -60 31 -151 34 -220 8z"/>
    <path d="M2463 9138 c-83 -40 -17 -173 69 -137 57 23 62 106 8 134 -33 17 -47
    18 -77 3z"/>
    <path d="M2752 8968 c-28 -28 -1 -75 38 -63 33 11 21 75 -15 75 -6 0 -16 -5
    -23 -12z"/>
    <path d="M2348 8819 c-15 -6 -30 -20 -33 -32 -3 -12 -11 -39 -17 -59 -24 -82
    23 -148 107 -148 70 0 92 56 55 139 -11 24 -20 56 -20 71 0 39 -34 50 -92 29z"/>
    <path d="M2835 8636 c-12 -9 -15 -19 -10 -35 9 -30 59 -26 63 6 4 29 -28 47
    -53 29z"/>
    <path d="M3082 8508 c-7 -7 -12 -26 -12 -43 0 -41 16 -55 61 -55 28 0 42 6 53
    22 21 29 21 74 0 82 -27 10 -89 7 -102 -6z"/>
    <path d="M2583 8392 c-20 -20 -16 -38 18 -77 35 -40 76 -46 102 -17 19 20 22
    68 7 92 -12 19 -108 21 -127 2z"/>
    <path d="M3373 8103 c-7 -3 -13 -16 -13 -29 0 -17 5 -24 20 -24 11 0 23 7 27
    16 7 18 -16 44 -34 37z"/>
    <path d="M3726 7875 c4 -8 8 -15 10 -15 2 0 4 7 4 15 0 8 -4 15 -10 15 -5 0
    -7 -7 -4 -15z"/>
    <path d="M3281 7750 c-35 -49 -35 -49 -19 -102 11 -38 75 -98 105 -98 7 0 27
    13 45 29 30 27 33 35 33 85 0 49 -4 59 -30 86 -18 18 -46 33 -67 36 -34 6 -38
    3 -67 -36z"/>
    <path d="M11040 4002 c-49 -15 -68 -83 -32 -115 40 -36 112 -6 112 46 0 44
    -42 81 -80 69z"/>
    <path d="M8242 3880 c-32 -19 -37 -35 -33 -90 7 -90 151 -72 151 19 0 67 -63
    105 -118 71z"/>
    <path d="M8450 3883 c-35 -24 -40 -33 -40 -75 0 -86 104 -110 146 -33 15 28
    16 37 4 64 -11 28 -53 61 -77 61 -5 0 -20 -8 -33 -17z"/>
    <path d="M2377 3853 c-4 -3 -7 -186 -7 -405 l0 -398 688 0 c527 0 692 -3 708
    -13 12 -6 39 -25 62 -40 43 -31 123 -45 185 -33 20 4 62 25 95 46 l60 40 200
    0 c173 0 201 2 206 16 3 9 6 183 6 388 0 286 -3 376 -13 390 -10 14 -25 16
    -77 14 l-65 -3 -5 -315 -5 -315 -89 0 -88 0 -3 40 c-4 52 -33 141 -61 185 -45
    73 -131 120 -218 120 -140 0 -246 -111 -264 -275 l-7 -70 -100 0 c-96 0 -100
    1 -103 22 -3 22 27 127 54 190 8 17 14 42 14 55 0 29 -64 93 -135 134 -45 26
    -59 29 -140 29 -103 0 -137 -12 -210 -77 -71 -62 -70 -61 -25 -197 22 -65 40
    -128 40 -140 0 -21 -2 -21 -274 -21 -240 0 -275 2 -280 16 -3 9 -6 153 -6 320
    l0 304 -68 0 c-38 0 -72 -3 -75 -7z m978 -398 c25 -21 27 -27 18 -47 -6 -13
    -23 -59 -36 -103 -24 -76 -26 -80 -56 -83 -26 -3 -33 1 -42 25 -7 15 -17 42
    -24 58 -7 17 -18 52 -25 79 -13 48 -13 49 14 73 39 33 112 32 151 -2z m659
    -76 c49 -29 74 -94 57 -151 -19 -62 -53 -88 -115 -88 -40 0 -56 5 -73 23 -51
    54 -46 162 9 210 39 32 74 34 122 6z"/>
    <path d="M4749 3848 c-1 -13 0 -775 1 -790 0 -5 34 -8 75 -8 l75 0 0 405 0
    405 -75 0 c-53 0 -75 -4 -76 -12z"/>
    <path d="M5699 3845 c-14 -8 -32 -27 -38 -44 -18 -42 8 -96 51 -105 65 -13 98
    15 98 84 0 19 -10 38 -27 55 -31 28 -47 30 -84 10z"/>
    <path d="M5903 3848 c-12 -6 -29 -26 -38 -45 -15 -32 -15 -35 5 -68 13 -21 32
    -36 50 -40 86 -19 133 90 63 145 -28 22 -47 24 -80 8z"/>
    <path d="M9473 3853 c-7 -2 -13 -9 -13 -13 0 -10 -61 -145 -92 -204 -28 -51
    -22 -159 11 -205 l22 -31 197 0 c244 0 245 -1 240 -105 l-3 -70 -610 -3 c-335
    -1 -620 0 -632 3 -23 5 -23 6 -23 225 l0 220 -74 0 c-70 0 -74 -1 -80 -24 -5
    -20 -14 -25 -58 -31 -152 -21 -248 -132 -248 -285 0 -124 55 -215 158 -260 43
    -19 69 -20 889 -20 l845 0 -4 183 c-3 180 -3 183 -33 235 -20 38 -43 61 -74
    80 -44 26 -53 27 -208 30 -90 2 -163 7 -163 11 0 8 12 31 88 173 23 42 42 82
    42 88 0 10 -153 13 -177 3z m-1065 -415 c8 -8 12 -46 12 -103 0 -57 -4 -95
    -12 -103 -30 -30 -120 5 -138 54 -23 60 3 125 58 148 46 19 64 20 80 4z"/>
    <path d="M10902 3837 c-48 -51 -13 -137 55 -137 64 0 98 93 50 138 -31 29 -77
    29 -105 -1z"/>
    <path d="M11102 3837 c-29 -30 -30 -89 -2 -117 20 -20 74 -27 96 -12 22 15 36
    54 30 88 -12 61 -83 85 -124 41z"/>
    <path d="M1366 3769 c-21 -17 -26 -29 -26 -65 0 -63 27 -88 87 -81 54 6 72 27
    73 84 0 33 -5 46 -26 62 -15 12 -39 21 -54 21 -15 0 -39 -9 -54 -21z"/>
    <path d="M11320 3498 c0 -248 -22 -301 -113 -284 -63 12 -75 51 -76 258 l-1
    96 -52 4 c-104 6 -98 14 -98 -128 0 -85 -5 -135 -14 -158 -17 -42 -69 -69
    -122 -64 l-39 3 -3 170 c-1 97 -7 172 -12 175 -6 4 -29 5 -53 4 -23 -2 -54 -3
    -69 -3 l-28 -1 -2 -172 -3 -173 -119 -3 c-78 -2 -123 1 -132 9 -11 9 -14 51
    -14 200 l0 189 -75 0 -75 0 0 -279 0 -279 -27 -32 c-23 -27 -32 -31 -65 -28
    -36 3 -38 2 -38 -26 0 -16 5 -56 12 -88 l12 -58 66 0 c100 0 149 39 175 141 9
    35 22 67 28 71 7 4 131 8 276 8 246 0 268 1 307 21 23 11 48 27 54 35 16 19
    33 18 46 -3 6 -10 32 -29 59 -42 41 -20 57 -23 126 -19 63 4 86 10 118 31 80
    53 100 137 101 420 l0 177 -75 0 -75 0 0 -172z"/>
    <path d="M1922 3533 l3 -88 37 -5 c21 -3 46 -13 57 -22 22 -19 34 -80 29 -148
    l-3 -45 -142 -3 -143 -3 0 -84 0 -85 220 0 220 0 0 188 c0 103 -5 204 -11 226
    -6 23 -29 57 -58 86 -49 49 -104 70 -182 70 l-30 0 3 -87z"/>
    <path d="M5773 3610 c-98 -20 -183 -95 -202 -180 -13 -55 -14 -142 -2 -192 23
    -99 134 -186 237 -187 51 -1 66 -11 57 -38 -4 -10 -42 -13 -147 -13 -132 0
    -146 2 -177 23 -50 34 -61 66 -68 201 l-6 121 -70 0 -70 0 0 -165 c1 -153 3
    -169 24 -210 33 -64 59 -89 119 -116 51 -23 61 -24 302 -24 l249 0 3 108 3
    107 468 3 467 2 -2 283 -3 282 -70 0 -70 0 -6 -195 c-3 -107 -6 -196 -7 -198
    -1 -1 -176 -1 -389 0 l-388 3 -5 195 -5 195 -100 2 c-55 0 -119 -3 -142 -7z
    m91 -186 c8 -20 8 -133 0 -173 -6 -28 -10 -31 -45 -31 -31 0 -45 7 -74 35 -51
    52 -47 120 9 167 27 23 101 24 110 2z"/>
    <path d="M7200 3345 c0 -227 -3 -281 -15 -305 -17 -33 -51 -46 -91 -36 l-26 7
    5 -58 c3 -32 8 -73 12 -90 l7 -33 68 0 c62 0 73 3 112 33 38 29 45 41 60 102
    10 38 23 72 30 77 7 4 86 8 176 8 148 0 162 2 162 18 0 9 1 132 3 272 3 140 2
    261 0 268 -4 8 -29 12 -79 12 l-74 0 0 -194 c0 -168 -2 -195 -16 -200 -9 -3
    -51 -6 -95 -6 l-79 0 -2 198 -3 197 -77 3 -78 3 0 -276z"/>
    <path d="M1162 3333 c3 -197 5 -222 25 -264 53 -116 134 -149 366 -149 l117 0
    0 315 0 315 -75 0 -75 0 0 -226 0 -227 -65 6 c-64 6 -106 26 -122 57 -4 8 -10
    98 -13 200 l-5 185 -78 3 -79 3 4 -218z"/>
    <path d="M7572 2984 c-32 -22 -31 -102 1 -132 30 -28 76 -28 111 -1 22 17 26
    28 26 69 0 57 -23 80 -80 80 -20 0 -46 -7 -58 -16z"/>
    <path d="M6667 2972 c-25 -28 -22 -96 5 -122 30 -27 79 -26 106 3 28 30 30 97
    4 120 -26 23 -94 22 -115 -1z"/>
    <path d="M6877 2975 c-30 -22 -33 -85 -7 -117 46 -59 140 -23 140 53 0 65 -81
    104 -133 64z"/>
    <path d="M1998 2716 c-46 -34 -50 -116 -9 -157 61 -61 151 -24 151 61 0 44
    -13 77 -39 97 -21 16 -82 16 -103 -1z"/>
    <path d="M1104 2698 c-3 -4 12 -31 33 -59 l38 -53 -2 -264 c-1 -146 -5 -282
    -8 -303 l-7 -39 99 0 99 0 -4 188 c-2 103 -3 196 0 207 3 15 22 -8 77 -92 41
    -63 77 -110 84 -107 7 2 43 53 82 112 l69 107 9 -65 c7 -44 6 -100 -2 -170 -6
    -58 -11 -123 -11 -143 l0 -37 100 0 100 0 -8 48 c-4 26 -7 160 -7 297 0 210 3
    259 18 307 9 31 17 59 17 62 0 3 -40 6 -90 6 l-90 0 -14 -32 c-18 -40 -157
    -230 -172 -235 -13 -4 -161 205 -170 241 -6 24 -8 25 -121 28 -63 2 -117 0
    -119 -4z"/>
    <path d="M4067 2691 l-49 -6 -1 -353 -2 -352 30 -6 c17 -3 57 -4 90 -2 l60 3
    -5 35 c-8 56 -6 632 3 663 7 27 7 27 -35 25 -24 0 -65 -4 -91 -7z"/>
    <path d="M5016 2683 c12 -28 17 -561 6 -628 -6 -34 -6 -64 -2 -69 14 -14 333
    -8 346 7 14 15 59 155 53 161 -3 3 -32 -3 -64 -13 -33 -10 -81 -22 -107 -25
    l-48 -7 0 253 c1 139 5 272 9 296 l8 42 -104 0 c-96 0 -105 -1 -97 -17z"/>
    <path d="M6443 2488 c-51 -52 -93 -97 -93 -101 0 -4 6 -7 14 -7 25 0 28 -18
    27 -164 0 -171 9 -199 80 -234 48 -24 111 -23 143 2 19 13 57 134 46 141 -5 3
    -11 1 -15 -5 -7 -12 -82 -14 -88 -2 -10 17 -17 228 -8 241 6 10 24 14 50 13
    l41 -3 0 56 0 55 -44 0 -44 0 -9 50 -8 51 -92 -93z"/>
    <path d="M2441 2445 l-41 -45 0 40 0 40 -82 0 -83 0 0 -249 0 -249 80 -4 c96
    -6 109 -3 100 26 -4 11 -9 91 -12 176 -5 138 -4 157 11 169 28 23 68 3 79 -39
    8 -30 4 -243 -5 -305 -3 -18 4 -20 85 -25 49 -3 90 -3 91 0 2 3 0 95 -4 205
    -5 164 -9 207 -24 238 -22 45 -60 67 -114 67 -34 0 -45 -6 -81 -45z"/>
    <path d="M2860 2470 c-53 -28 -88 -70 -110 -133 -44 -126 -8 -262 87 -327 60
    -41 196 -59 240 -32 11 7 53 116 53 138 0 8 -13 5 -37 -8 -58 -30 -118 -20
    -161 27 -18 20 -31 41 -29 48 3 8 37 12 112 12 l109 1 8 29 c23 86 -29 212
    -104 251 -38 20 -126 17 -168 -6z m124 -105 c9 -13 16 -33 16 -45 0 -18 -6
    -20 -55 -20 -61 0 -67 8 -40 60 20 38 56 40 79 5z"/>
    <path d="M3406 2448 l-36 -43 0 38 0 37 -91 0 c-83 0 -90 -1 -83 -17 13 -27
    17 -411 4 -446 -5 -17 -8 -33 -4 -36 3 -3 44 -6 92 -6 l86 0 -3 165 -3 165 26
    24 c21 19 32 23 65 18 46 -6 46 -6 57 86 l6 57 -40 0 c-35 0 -45 -5 -76 -42z"/>
    <path d="M3663 2483 c-12 -2 -26 -10 -31 -16 -11 -14 -35 -108 -29 -113 2 -2
    23 3 47 11 50 18 103 7 120 -25 16 -31 13 -34 -56 -59 -44 -16 -81 -38 -110
    -66 -42 -40 -44 -44 -44 -100 0 -73 25 -117 80 -139 52 -20 51 -21 94 9 36 25
    36 25 56 5 15 -15 33 -20 73 -20 28 0 57 4 63 8 7 5 8 70 5 202 -5 172 -8 199
    -27 230 -34 58 -76 80 -153 79 -36 -1 -76 -4 -88 -6z m115 -350 c-3 -46 -4
    -48 -35 -51 -27 -3 -35 1 -44 22 -6 13 -9 36 -5 50 6 23 12 26 47 26 l40 0 -3
    -47z"/>
    <path d="M4375 2476 c-16 -8 -43 -28 -60 -45 -27 -29 -30 -39 -30 -97 l0 -65
    68 -65 c72 -70 82 -98 42 -116 -23 -10 -50 -4 -127 30 -14 6 -9 -115 5 -126 6
    -5 40 -16 73 -22 153 -30 269 70 234 201 -8 30 -28 57 -76 102 -35 33 -64 67
    -64 74 0 22 34 32 76 23 21 -5 42 -10 47 -10 4 0 7 26 7 59 0 52 -2 59 -22 65
    -40 10 -142 6 -173 -8z"/>
    <path d="M6082 2469 c-51 -26 -79 -63 -88 -116 -8 -52 9 -83 79 -151 65 -61
    78 -89 51 -109 -24 -17 -41 -16 -91 6 -23 11 -44 17 -47 13 -11 -11 -6 -110 7
    -120 6 -5 38 -15 70 -22 95 -19 195 19 223 86 33 79 12 146 -70 220 -31 29
    -56 59 -56 68 0 25 33 37 71 26 57 -17 59 -15 59 49 0 58 -1 59 -31 65 -63 12
    -133 6 -177 -15z"/>
    <path d="M6855 2476 c-89 -39 -135 -124 -135 -250 0 -163 98 -261 260 -260 76
    1 93 12 114 81 10 32 21 64 23 70 3 9 -10 6 -38 -7 -74 -33 -137 -20 -173 35
    -33 50 -18 58 102 54 l107 -4 0 80 c-1 98 -27 154 -91 191 -46 27 -120 32
    -169 10z m117 -125 c9 -19 15 -38 12 -43 -3 -4 -27 -8 -55 -8 -46 0 -49 2 -49
    26 0 71 61 88 92 25z"/>
    <path d="M7390 2446 l-35 -44 -5 37 -5 36 -87 3 -87 3 12 -33 c9 -24 11 -90 7
    -248 -3 -118 -4 -217 -3 -219 2 -2 36 -6 78 -9 92 -6 106 3 94 56 -5 20 -9 91
    -9 158 0 115 1 122 24 143 19 18 33 22 67 19 39 -3 43 -1 50 25 4 15 9 47 11
    70 l3 42 -40 3 c-37 2 -43 -1 -75 -42z"/>
    <path d="M8030 2477 c-19 -6 -55 -32 -80 -57 -98 -98 -105 -261 -17 -373 34
    -43 62 -60 132 -76 40 -9 59 -9 89 1 35 12 41 19 63 77 13 35 22 66 19 68 -2
    2 -18 -3 -35 -11 -62 -33 -121 -14 -151 49 -40 83 -16 181 52 209 27 12 38 12
    71 0 22 -8 43 -14 48 -14 5 0 9 29 9 64 0 58 -2 64 -22 70 -36 9 -139 5 -178
    -7z"/>
    <path d="M8431 2464 c-82 -41 -140 -144 -141 -251 0 -55 33 -143 67 -178 18
    -18 58 -43 90 -55 57 -22 60 -22 123 -6 104 27 167 100 189 219 39 213 -142
    363 -328 271z m99 -91 c42 -24 71 -91 71 -161 1 -57 -19 -123 -39 -136 -14 -8
    -69 39 -89 78 -31 58 -17 236 18 236 6 0 24 -7 39 -17z"/>
    <path d="M9046 2449 l-35 -41 -6 36 -7 36 -84 0 -83 0 7 -32 c4 -18 7 -131 7
    -251 l0 -217 93 0 92 0 -6 28 c-3 15 -10 43 -15 62 -5 19 -9 85 -9 147 0 118
    9 143 50 143 41 0 53 -42 51 -173 -1 -67 -6 -140 -11 -162 -5 -22 -7 -41 -5
    -44 3 -2 44 -5 92 -5 l88 -1 -4 186 c-3 179 -2 187 17 193 25 8 49 -1 57 -22
    14 -33 17 -210 6 -277 -7 -37 -10 -70 -7 -72 9 -9 174 -14 178 -6 2 4 1 98 -2
    208 -5 164 -9 207 -24 238 -22 45 -60 67 -115 67 -35 0 -45 -5 -77 -44 l-36
    -44 -42 44 c-38 39 -47 44 -89 44 -41 0 -49 -4 -81 -41z"/>
    <!-- <path d="M9788 2454 l-28 -37 0 31 0 32 -89 0 -89 0 10 -46 c6 -25 8 -169 6
    -330 l-3 -284 94 0 c85 0 93 2 86 18 -12 30 -18 142 -8 142 6 0 24 -5 41 -11
    67 -23 161 39 203 134 17 40 23 71 23 137 0 99 -20 153 -78 209 -29 29 -44 35
    -88 38 -51 4 -54 2 -80 -33z m56 -117 c67 -67 26 -254 -53 -245 l-26 3 -3 123
    c-3 119 -2 123 20 132 33 13 37 12 62 -13z"/>
    <path d="M10193 2479 c-28 -8 -33 -15 -42 -60 -15 -70 -16 -70 31 -53 69 24
    128 2 128 -50 0 -8 -20 -21 -49 -31 -142 -47 -203 -140 -155 -241 17 -35 60
    -68 104 -79 18 -4 35 1 59 20 40 29 51 31 51 11 0 -11 18 -15 71 -18 39 -2 74
    -1 78 2 9 6 -5 352 -15 395 -10 42 -42 82 -80 100 -35 16 -130 19 -181 4z
    m125 -346 c-3 -44 -5 -48 -31 -51 -38 -5 -57 14 -57 53 0 41 5 45 52 45 l39 0
    -3 -47z"/>
    <path d="M10758 2448 l-37 -43 0 38 -1 37 -89 0 -90 0 7 -37 c10 -52 9 -401
    -1 -435 l-7 -28 93 0 94 0 -5 184 -5 185 27 7 c19 4 33 1 47 -12 20 -18 21
    -27 17 -192 l-3 -173 90 3 c84 3 90 4 86 23 -2 11 -6 106 -10 210 -5 160 -9
    194 -24 217 -27 40 -61 58 -109 58 -39 0 -48 -5 -80 -42z"/>
    <path d="M1965 2230 l0 -250 92 0 91 0 -10 36 c-11 42 -6 419 6 447 7 15 0 17
    -85 17 l-94 0 0 -250z"/>
    <path d="M5475 2458 c4 -13 10 -106 14 -208 7 -205 12 -223 74 -260 57 -35 84
    -35 127 -1 45 36 50 37 50 12 0 -16 10 -21 53 -26 29 -4 66 -5 81 -3 l29 3 1
    252 1 253 -94 0 c-85 0 -92 -1 -85 -17 5 -10 10 -93 12 -185 l3 -168 -26 -10
    c-18 -7 -33 -7 -47 1 -19 10 -20 18 -17 195 l4 184 -94 0 c-92 0 -93 0 -86
    -22z"/>
    <path d="M11000 2475 c0 -3 11 -22 24 -43 36 -58 156 -340 156 -368 0 -26 -70
    -135 -124 -191 l-49 -53 96 0 95 0 39 44 c50 56 79 117 148 305 30 83 66 177
    79 209 46 111 50 103 -51 100 l-88 -3 -3 -30 c-7 -70 -48 -202 -59 -192 -3 4
    -22 55 -42 114 l-36 108 -92 3 c-51 1 -93 0 -93 -3z"/> -->
    </g>
</svg>
