<svg width="80" height="80" viewBox="0 0 80 80" fill="none" xmlns="http://www.w3.org/2000/svg">
    <rect width="80" height="80" rx="40" fill="#C86D02"/>
    <path d="M55.8114 33.2782L36.2824 21.6101C34.7571 20.7006 32.9523 20.1529 31.068 20.0276C29.1838 19.9024 27.2938 20.2045 25.6075 20.9006C23.9213 21.5966 22.5047 22.6593 21.5149 23.9708C20.5252 25.2824 20.0008 26.7915 20 28.3309V51.6671C20.0003 53.2072 20.5247 54.7171 21.515 56.0292C22.5052 57.3414 23.9226 58.4044 25.6098 59.1004C27.297 59.7964 29.1881 60.0981 31.0731 59.972C32.9581 59.846 34.7634 59.2971 36.2885 58.3863L55.8175 46.7182C57.1139 45.9441 58.1681 44.9322 58.8947 43.7646C59.6213 42.5969 60 41.3063 60 39.9973C60 38.6883 59.6213 37.3977 58.8947 36.2301C58.1681 35.0625 57.1139 34.0506 55.8175 33.2765L55.8114 33.2782ZM53.3877 44.0295L33.8586 55.6976C32.9436 56.2421 31.8615 56.5697 30.7319 56.6443C29.6023 56.719 28.4694 56.5376 27.4586 56.1204C26.4478 55.7031 25.5985 55.0663 25.0047 54.2803C24.4109 53.4943 24.0957 52.5899 24.0941 51.6671V28.3309C24.0828 27.4064 24.392 26.498 24.9862 25.7101C25.5804 24.9222 26.4356 24.2869 27.4534 23.877C28.3191 23.5184 29.2764 23.3311 30.2476 23.3303C31.5493 23.3343 32.8151 23.6785 33.8586 24.3121L53.3877 35.9802C54.1645 36.4447 54.7962 37.0516 55.2316 37.7518C55.6669 38.452 55.8938 39.2258 55.8938 40.0107C55.8938 40.7955 55.6669 41.5693 55.2316 42.2695C54.7962 42.9697 54.1645 43.5766 53.3877 44.0412V44.0295Z" fill="white"/>
</svg>
